<?xml version="1.0" encoding="UTF-8"?>
<svg version="1.1" xmlns="http://www.w3.org/2000/svg" width="36" height="37">
<path d="M0 0 C11.88 0 23.76 0 36 0 C36 12.21 36 24.42 36 37 C24.12 37 12.24 37 0 37 C0 24.79 0 12.58 0 0 Z " fill="#B73233" transform="translate(0,0)"/>
<path d="M0 0 C0.66 0 1.32 0 2 0 C2 1.32 2 2.64 2 4 C3.32 4 4.64 4 6 4 C6 4.99 6 5.98 6 7 C8.475 7.495 8.475 7.495 11 8 C11 9.65 11 11.3 11 13 C12.32 13 13.64 13 15 13 C15 13.66 15 14.32 15 15 C13.68 15 12.36 15 11 15 C11 16.65 11 18.3 11 20 C10.34 20 9.68 20 9 20 C9 20.66 9 21.32 9 22 C8.34 22 7.68 22 7 22 C7 22.66 7 23.32 7 24 C5.35 24 3.7 24 2 24 C2 25.32 2 26.64 2 28 C1.34 28 0.68 28 0 28 C0 26.68 0 25.36 0 24 C-2.97 24 -5.94 24 -9 24 C-9 23.34 -9 22.68 -9 22 C-8.34 22 -7.68 22 -7 22 C-7 21.34 -7 20.68 -7 20 C-7.66 20 -8.32 20 -9 20 C-9 18.35 -9 16.7 -9 15 C-10.32 15 -11.64 15 -13 15 C-13 14.34 -13 13.68 -13 13 C-11.68 13 -10.36 13 -9 13 C-9 10.03 -9 7.06 -9 4 C-8.34 4 -7.68 4 -7 4 C-7 4.66 -7 5.32 -7 6 C-6.34 6 -5.68 6 -5 6 C-5 5.34 -5 4.68 -5 4 C-3.35 4 -1.7 4 0 4 C0 2.68 0 1.36 0 0 Z " fill="#0B0001" transform="translate(18,5)"/>
<path d="M0 0 C11.88 0 23.76 0 36 0 C36 12.21 36 24.42 36 37 C24.12 37 12.24 37 0 37 C0 24.79 0 12.58 0 0 Z M3 3 C3 13.56 3 24.12 3 35 C13.56 35 24.12 35 35 35 C35 24.44 35 13.88 35 3 C24.44 3 13.88 3 3 3 Z " fill="#93797A" transform="translate(0,0)"/>
<path d="M0 0 C11.55 0 23.1 0 35 0 C35 0.33 35 0.66 35 1 C19.655 1.495 19.655 1.495 4 2 C3.67 13.55 3.34 25.1 3 37 C2.01 37 1.02 37 0 37 C0 24.79 0 12.58 0 0 Z " fill="#A49B99" transform="translate(0,0)"/>
<path d="M0 0 C4.62 0 9.24 0 14 0 C14 4.29 14 8.58 14 13 C12.68 12.67 11.36 12.34 10 12 C9.67 9.69 9.34 7.38 9 5 C8.34 5 7.68 5 7 5 C7 5.66 7 6.32 7 7 C6.34 7 5.68 7 5 7 C5 6.34 5 5.68 5 5 C3.35 5 1.7 5 0 5 C0 3.35 0 1.7 0 0 Z " fill="#D12926" transform="translate(20,4)"/>
<path d="M0 0 C4.62 0 9.24 0 14 0 C14 1.65 14 3.3 14 5 C12.35 5 10.7 5 9 5 C9 5.66 9 6.32 9 7 C8.34 7 7.68 7 7 7 C7 6.34 7 5.68 7 5 C6.01 5 5.02 5 4 5 C4 7.31 4 9.62 4 12 C2.68 12 1.36 12 0 12 C0 8.04 0 4.08 0 0 Z " fill="#D32826" transform="translate(4,4)"/>
<path d="M0 0 C0.99 0 1.98 0 3 0 C3 2.64 3 5.28 3 8 C6.3 8 9.6 8 13 8 C13 9.65 13 11.3 13 13 C8.38 13 3.76 13 -1 13 C-1.09765625 3.72265625 -1.09765625 3.72265625 -1 1 C-0.67 0.67 -0.34 0.34 0 0 Z " fill="#D42827" transform="translate(5,21)"/>
<path d="M0 0 C0.33 0.66 0.66 1.32 1 2 C1.66 2 2.32 2 3 2 C3 1.34 3 0.68 3 0 C3.66 0 4.32 0 5 0 C5.33 2.31 5.66 4.62 6 7 C6.9590625 7.2165625 6.9590625 7.2165625 7.9375 7.4375 C10 8 10 8 11 9 C11.07325168 11.86267567 11.09238205 14.700719 11.0625 17.5625 C11.05798828 18.36880859 11.05347656 19.17511719 11.04882812 20.00585938 C11.03700518 22.00393756 11.01906914 24.00197783 11 26 C5.72 26 0.44 26 -5 26 C-5 25.67 -5 25.34 -5 25 C-0.05 25 4.9 25 10 25 C10 21.04 10 17.08 10 13 C8.68 13 7.36 13 6 13 C6 15.31 6 17.62 6 20 C5.67 19.34 5.34 18.68 5 18 C4.34 18 3.68 18 3 18 C3 17.34 3 16.68 3 16 C3.66 16 4.32 16 5 16 C5 14.35 5 12.7 5 11 C6.32 11 7.64 11 9 11 C9 10.34 9 9.68 9 9 C7.68 9 6.36 9 5 9 C5 7.35 5 5.7 5 4 C3.35 3.67 1.7 3.34 0 3 C0 2.01 0 1.02 0 0 Z " fill="#B93133" transform="translate(24,9)"/>
<path d="M0 0 C1.32 0 2.64 0 4 0 C4 3.96 4 7.92 4 12 C0.04 12 -3.92 12 -8 12 C-8 10.68 -8 9.36 -8 8 C-4.535 7.505 -4.535 7.505 -1 7 C-0.67 4.69 -0.34 2.38 0 0 Z " fill="#DB2625" transform="translate(30,22)"/>
<path d="M0 0 C0.99 0.33 1.98 0.66 3 1 C3 1.66 3 2.32 3 3 C8.445 2.505 8.445 2.505 14 2 C14 2.66 14 3.32 14 4 C12.35 4 10.7 4 9 4 C9 5.32 9 6.64 9 8 C8.34 8 7.68 8 7 8 C7 6.68 7 5.36 7 4 C4.03 4 1.06 4 -2 4 C-2 3.34 -2 2.68 -2 2 C-1.34 2 -0.68 2 0 2 C0 1.34 0 0.68 0 0 Z " fill="#410807" transform="translate(11,25)"/>
<path d="M0 0 C0.33 0.66 0.66 1.32 1 2 C1.66 2 2.32 2 3 2 C3 1.34 3 0.68 3 0 C3.66 0 4.32 0 5 0 C5.33 2.31 5.66 4.62 6 7 C6.639375 7.103125 7.27875 7.20625 7.9375 7.3125 C8.618125 7.539375 9.29875 7.76625 10 8 C10.33 8.99 10.66 9.98 11 11 C10.34 11 9.68 11 9 11 C9 10.34 9 9.68 9 9 C7.68 9 6.36 9 5 9 C5 7.35 5 5.7 5 4 C3.35 3.67 1.7 3.34 0 3 C0 2.01 0 1.02 0 0 Z " fill="#8D211F" transform="translate(24,9)"/>
<path d="M0 0 C1.32 0 2.64 0 4 0 C4 0.99 4 1.98 4 3 C1.69 3 -0.62 3 -3 3 C-3 4.32 -3 5.64 -3 7 C-4.65 7.33 -6.3 7.66 -8 8 C-7.67 7.34 -7.34 6.68 -7 6 C-6.34 6 -5.68 6 -5 6 C-5 4.68 -5 3.36 -5 2 C-3.35 2 -1.7 2 0 2 C0 1.34 0 0.68 0 0 Z " fill="#A22826" transform="translate(25,27)"/>
<path d="M0 0 C1.65 0 3.3 0 5 0 C5 1.65 5 3.3 5 5 C3.35 5 1.7 5 0 5 C0 3.35 0 1.7 0 0 Z " fill="#C8C8C7" transform="translate(13,13)"/>
<path d="M0 0 C0.66 0 1.32 0 2 0 C2 0.66 2 1.32 2 2 C2.66 2.33 3.32 2.66 4 3 C3.01 4.98 2.02 6.96 1 9 C0.67 9 0.34 9 0 9 C0 6.03 0 3.06 0 0 Z " fill="#420A0C" transform="translate(9,9)"/>
</svg>
